<svg width="512" height="512" viewBox="0 0 512 512" fill="none" xmlns="http://www.w3.org/2000/svg">
<path d="M393.163 179.198C393.127 179.198 393.093 179.184 393.067 179.159C393.042 179.134 393.028 179.099 393.028 179.064C391.075 175.762 388.279 173.031 384.922 171.147L266.037 104.724C262.816 102.938 259.189 102 255.5 102C251.811 102 248.183 102.938 244.962 104.724L126.078 171.147C122.721 173.03 119.925 175.762 117.972 179.064C117.972 179.099 117.958 179.133 117.933 179.159C117.907 179.184 117.873 179.198 117.837 179.198L117.837 179.466C115.969 182.593 114.989 186.163 115 189.799L115 322.107C115.007 325.932 116.036 329.687 117.982 332.988C119.929 336.288 122.722 339.017 126.078 340.894L244.962 407.316C247.955 408.938 251.283 409.856 254.689 410L256.581 410C259.898 409.834 263.133 408.916 266.037 407.316L384.922 340.894C388.277 339.017 391.071 336.288 393.017 332.988C394.964 329.687 395.993 325.932 396 322.107L396 189.799C396.02 186.078 395.04 182.418 393.163 179.198ZM256.716 243.608L147.964 183.492L255.5 123.376L363.171 183.492L256.716 243.608ZM374.384 322.107L266.443 382.492L267.523 262.26L374.384 201.876L374.384 322.107Z" fill="url(#paint0_linear_212_2)"/>
<defs>
<linearGradient id="paint0_linear_212_2" x1="76" y1="405.5" x2="377.5" y2="104" gradientUnits="userSpaceOnUse">
<stop stop-color="#FF3162"/>
<stop offset="1" stop-color="#FC4D77"/>
</linearGradient>
</defs>
</svg>
