<svg width="610" height="192" viewBox="0 0 610 192" fill="none" xmlns="http://www.w3.org/2000/svg">
<path d="M159.925 60.1866C159.908 60.1866 159.892 60.1799 159.88 60.1681C159.868 60.1563 159.862 60.1403 159.862 60.1237C158.95 58.5758 157.644 57.2956 156.076 56.4125L100.547 25.2769C99.0424 24.4396 97.348 24 95.625 24C93.9019 24 92.2075 24.4396 90.7031 25.2769L35.1743 56.4125C33.6064 57.2955 32.3003 58.5758 31.3883 60.1236C31.3883 60.1403 31.3816 60.1563 31.3698 60.1681C31.3579 60.1799 31.3419 60.1865 31.3252 60.1865L31.3252 60.3123C30.4528 61.7779 29.9949 63.4516 30 65.1557L30 127.175C30.0032 128.968 30.4839 130.728 31.393 132.276C32.3021 133.823 33.607 135.102 35.1743 135.981L90.7031 167.117C92.101 167.877 93.6553 168.307 95.2463 168.375L96.1297 168.375C97.6791 168.297 99.1901 167.867 100.547 167.117L156.076 135.981C157.643 135.102 158.948 133.823 159.857 132.276C160.766 130.728 161.247 128.968 161.25 127.175L161.25 65.1557C161.259 63.4113 160.802 61.6961 159.925 60.1866ZM96.1928 90.3787L45.3967 62.1993L95.625 34.02L145.916 62.1994L96.1928 90.3787ZM151.154 127.175L100.736 155.48L101.241 99.1218L151.154 70.8167L151.154 127.175Z" fill="#FF3162"/>
<path d="M239.25 142V48.9091H304.705V69.2727H264.523V85.2727H300.705V105.636H264.523V142H239.25ZM312.08 142V48.9091H379.171V69.2727H337.353V85.2727H375.716V105.636H337.353V121.636H378.989V142H312.08ZM389.785 142V48.9091H429.967C436.876 48.9091 442.921 50.1667 448.103 52.6818C453.285 55.197 457.315 58.8182 460.194 63.5455C463.073 68.2727 464.512 73.9394 464.512 80.5455C464.512 87.2121 463.027 92.8333 460.058 97.4091C457.118 101.985 452.982 105.439 447.649 107.773C442.346 110.106 436.149 111.273 429.058 111.273H405.058V91.6364H423.967C426.937 91.6364 429.467 91.2727 431.558 90.5455C433.679 89.7879 435.3 88.5909 436.421 86.9545C437.573 85.3182 438.149 83.1818 438.149 80.5455C438.149 77.8788 437.573 75.7121 436.421 74.0455C435.3 72.3485 433.679 71.1061 431.558 70.3182C429.467 69.5 426.937 69.0909 423.967 69.0909H415.058V142H389.785ZM444.33 99.2727L467.603 142H440.149L417.421 99.2727H444.33ZM563.547 95.4545C563.547 105.818 561.532 114.561 557.501 121.682C553.471 128.773 548.032 134.152 541.183 137.818C534.335 141.455 526.698 143.273 518.274 143.273C509.789 143.273 502.123 141.439 495.274 137.773C488.456 134.076 483.032 128.682 479.001 121.591C475.001 114.47 473.001 105.758 473.001 95.4545C473.001 85.0909 475.001 76.3636 479.001 69.2727C483.032 62.1515 488.456 56.7727 495.274 53.1364C502.123 49.4697 509.789 47.6364 518.274 47.6364C526.698 47.6364 534.335 49.4697 541.183 53.1364C548.032 56.7727 553.471 62.1515 557.501 69.2727C561.532 76.3636 563.547 85.0909 563.547 95.4545ZM537.547 95.4545C537.547 89.8788 536.804 85.1818 535.32 81.3636C533.865 77.5151 531.698 74.6061 528.82 72.6364C525.971 70.6364 522.456 69.6364 518.274 69.6364C514.092 69.6364 510.562 70.6364 507.683 72.6364C504.835 74.6061 502.668 77.5151 501.183 81.3636C499.729 85.1818 499.001 89.8788 499.001 95.4545C499.001 101.03 499.729 105.742 501.183 109.591C502.668 113.409 504.835 116.318 507.683 118.318C510.562 120.288 514.092 121.273 518.274 121.273C522.456 121.273 525.971 120.288 528.82 118.318C531.698 116.318 533.865 113.409 535.32 109.591C536.804 105.742 537.547 101.03 537.547 95.4545Z" fill="#FF3162"/>
</svg>
